<svg xmlns="http://www.w3.org/2000/svg" id="layer_1" data-name="layer 1" viewBox="0 0 230.24 329.74">
  <defs>
    <style>
      .cls-1{fill:#285b2d}.cls-2{fill:#43793a}.cls-3{fill:#a7c739}.cls-4{fill:#72a742}
    </style>
  </defs>
  <path d="M192.2 192.08a17.67 17.67 0 0 0-16 7.49 18.07 18.07 0 0 0 15 9.65 17.68 17.68 0 0 0 16-7.48 18.08 18.08 0 0 0-15-9.66ZM196 169.41a18.73 18.73 0 0 0-13.18 12.34 17.26 17.26 0 0 0 17 4.34A18.75 18.75 0 0 0 213 173.75a17.26 17.26 0 0 0-17-4.34Z" class="cls-1"/>
  <path d="M206.08 147.22a19.61 19.61 0 0 0-10.26 15.23c4.8 3.11 11.46 3.37 17.45.1a19.62 19.62 0 0 0 10.26-15.22c-4.79-3.11-11.46-3.33-17.45-.11Z" class="cls-2"/>
  <path d="M210.08 121.55a20.21 20.21 0 0 0-7.81 16.83c5.21 2.23 11.82 1.3 17.23-3a20.19 20.19 0 0 0 7.82-16.83c-5.21-2.2-11.82-1.28-17.24 3Z" class="cls-3"/>
  <path d="M209 111c5.52 1 11.81-1.39 16.27-6.8a20.75 20.75 0 0 0 4.37-18.2c-5.53-1-11.82 1.39-16.27 6.8A20.72 20.72 0 0 0 209 111Z" class="cls-2"/>
  <path d="M202.27 73.45c-3.9 5.9-4.67 13-2.53 18.63 5.59.35 11.6-2.76 15.5-8.66s4.66-13 2.52-18.62c-5.58-.35-11.6 2.76-15.49 8.65Z" class="cls-1"/>
  <path d="M197.5 69.56c5.53-1 10.76-5.42 13.37-12.1s1.9-13.81-1.31-18.76c-5.53 1-10.77 5.42-13.37 12.09s-1.91 13.82 1.31 18.77Z" class="cls-3"/>
  <path d="M198.46 38.19c1.54-7-.26-14-4.19-18.27-5.3 2-9.78 7.29-11.32 14.33s.26 14 4.21 18.27c5.29-1.95 9.76-7.28 11.3-14.33Z" class="cls-2"/>
  <path d="M181.4 26.9c1.09-7.15-1.14-13.9-5.34-17.9-5.16 2.34-9.29 8-10.38 15.12S166.81 38 171 42c5.18-2.31 9.31-8 10.4-15.1Z" class="cls-1"/>
  <path d="M148.9 38.78c4.85-3 8.29-9.18 8.53-16.42s-2.76-13.65-7.39-17c-4.85 3-8.29 9.19-8.53 16.42s2.75 13.6 7.39 17Z" class="cls-3"/>
  <path d="M125.73 38.78c4.84-3 8.28-9.18 8.52-16.42s-2.75-13.65-7.39-17c-4.85 3-8.28 9.19-8.53 16.42s2.76 13.6 7.4 17Z" class="cls-4"/>
  <path d="M100.72 36.06c4.57-3.49 7.46-10 7.08-17.2S103.89 5.55 99 2.62c-4.57 3.5-7.46 10-7.09 17.2s3.9 13.32 8.81 16.24Z" class="cls-1"/>
  <path d="M179 143.82a18.44 18.44 0 0 0-14 11.27 17.4 17.4 0 0 0 16.65 5.66 18.46 18.46 0 0 0 14-11.27 17.41 17.41 0 0 0-16.65-5.66Z" class="cls-4"/>
  <path d="M201.25 123.28c-4.73-3.24-11.39-3.67-17.45-.55a19.54 19.54 0 0 0-10.59 15c4.74 3.23 11.39 3.66 17.45.53a19.53 19.53 0 0 0 10.59-14.98Z" class="cls-3"/>
  <path d="M205.83 97.23c-5.32-1.89-11.87-.54-17 4.08a20.36 20.36 0 0 0-6.87 17.31c5.32 1.88 11.87.53 17-4.09a20.36 20.36 0 0 0 6.87-17.3Z" class="cls-4"/>
  <path d="M149.25 166.34a20.38 20.38 0 0 0-6.79-17.34c-5.15-4.65-11.69-6-17-4.16a20.37 20.37 0 0 0 6.8 17.33c5.12 4.66 11.66 6.03 16.99 4.17Z" class="cls-1"/>
  <path d="M154.91 143.17a20.38 20.38 0 0 0-6.87-17.3c-5.17-4.62-11.72-6-17-4.08a20.36 20.36 0 0 0 6.87 17.3c5.09 4.62 11.67 5.96 17 4.08Z" class="cls-4"/>
  <path d="M157.41 106.79c-3.45-6.21-9.22-9.83-14.82-10-2.54 5.38-2.3 12.57 1.16 18.77s9.21 9.82 14.81 10c2.54-5.38 2.31-12.56-1.15-18.77Z" class="cls-1"/>
  <path d="M166.53 106.51c4.11-4.1 6.19-10.93 4.93-18.05S166 75.81 160.74 73.61c-4.11 4.11-6.19 10.94-4.93 18s5.5 12.7 10.72 14.9Z" class="cls-2"/>
  <path d="M193.05 87.15c2.47-6.73 1.63-13.87-1.69-18.74-5.5 1.1-10.65 5.67-13.12 12.4s-1.63 13.86 1.68 18.73c5.51-1.1 10.66-5.67 13.13-12.39Z" class="cls-1"/>
  <path d="M106.26 136c3.51-6.17 3.82-13.36 1.33-18.78-5.6.07-11.4 3.62-14.91 9.79s-3.82 13.34-1.34 18.76c5.6-.1 11.41-3.65 14.92-9.77Z" class="cls-2"/>
  <path d="M112.32 117.6c1.17 7.12 5.37 12.71 10.56 15 4.15-4 6.3-10.86 5.13-18s-5.38-12.72-10.58-15c-4.15 4.07-6.29 10.87-5.11 18ZM89.91 82.15c.51-7.22-2.26-13.76-6.78-17.35-4.95 2.82-8.6 8.83-9.11 16s2.27 13.75 6.77 17.34c4.96-2.76 8.62-8.77 9.12-15.99Z" class="cls-1"/>
  <path d="M32.2 157.11c5.59 4 12.23 4.59 17.34 2.11A20.05 20.05 0 0 0 41 142.8c-5.59-4-12.24-4.59-17.35-2.1a20.06 20.06 0 0 0 8.55 16.41Z" class="cls-2"/>
  <path d="M27 122.11c1.41 7.08 5.79 12.49 11.05 14.56 4-4.22 5.94-11.1 4.53-18.18S36.8 106 31.53 103.93C27.52 108.14 25.6 115 27 122.11Z" class="cls-1"/>
  <path d="M37.09 100.55c3 6.45 8.57 10.47 14.15 11 2.87-5.18 3.1-12.37.06-18.81s-8.57-10.49-14.16-11c-2.87 5.17-3.09 12.36-.05 18.81Z" class="cls-4"/>
  <path d="M65.66 71.53c5.29-2 9.7-7.41 11.17-14.47s-.41-14-4.4-18.22c-5.27 2-9.69 7.41-11.15 14.47s.41 13.96 4.38 18.22Z" class="cls-2"/>
  <path d="M50.55 56.69c-4.26 3.91-6.61 10.64-5.66 17.8s5 12.89 10.1 15.35c4.27-3.91 6.63-10.64 5.68-17.8s-4.99-12.9-10.12-15.35Z" class="cls-1"/>
  <path d="M41.09 60.16c4-4.21 6-11.09 4.56-18.17s-5.77-12.51-11-14.59c-4 4.21-5.95 11.09-4.55 18.17s5.73 12.5 10.99 14.59Z" class="cls-3"/>
  <path d="M57.9 44.74c4.29-3.89 6.67-10.6 5.75-17.77s-4.93-12.92-10-15.39c-4.28 3.89-6.67 10.6-5.73 17.77s4.88 12.91 9.98 15.39Z" class="cls-4"/>
  <path d="M77 33.38c4.49-3.61 7.24-10.16 6.7-17.38S79.46 2.79 74.49 0C70 3.61 67.26 10.17 67.8 17.38s4.2 13.21 9.2 16Z" class="cls-3"/>
  <path d="M83 51.26c1.85 7 6.56 12 12 13.72 3.73-4.51 5.22-11.51 3.36-18.47s-6.57-12-12-13.72c-3.79 4.5-5.27 11.51-3.36 18.47Z" class="cls-4"/>
  <path d="M106 55.17c2.46 6.74 7.59 11.31 13.1 12.44 3.32-4.87 4.19-12 1.73-18.73s-7.6-11.32-13.11-12.44c-3.35 4.87-4.21 12-1.72 18.73Z" class="cls-3"/>
  <path d="M127.12 51.52c-.5 7.21 2.28 13.74 6.79 17.34 5-2.83 8.6-8.84 9.11-16.06s-2.28-13.75-6.79-17.34c-4.95 2.82-8.6 8.84-9.11 16.06Z" class="cls-4"/>
  <path d="M149.93 48.57c-.86 7.18 1.59 13.86 5.91 17.71 5.08-2.53 9-8.33 9.89-15.51s-1.59-13.87-5.92-17.71c-5.08 2.53-9.02 8.33-9.88 15.51Z" class="cls-2"/>
  <path d="M101.8 63.59C98 68 96.34 75 98.05 82s6.31 12.2 11.65 14c3.83-4.4 5.47-11.37 3.76-18.37s-6.31-12.24-11.66-14.04Z" class="cls-1"/>
  <path d="M123.15 72.56c-3.34 4.84-4.23 12-1.81 18.71s7.55 11.36 13 12.51c3.34-4.84 4.24-12 1.81-18.72s-7.49-11.36-13-12.5ZM146.71 93.52c4.49-3.6 7.25-10.14 6.72-17.36s-4.19-13.22-9.16-16c-4.5 3.6-7.25 10.15-6.72 17.37s4.19 13.19 9.16 15.99Z" class="cls-2"/>
  <path d="M176.34 45.65c-5.14 2.41-9.2 8.1-10.21 15.26s1.29 13.9 5.53 17.85c5.14-2.41 9.21-8.1 10.22-15.26s-1.29-13.9-5.54-17.85ZM98.83 111.25c2.25-6.82 1.17-13.92-2.3-18.67-5.47 1.32-10.46 6.08-12.71 12.9s-1.18 13.91 2.29 18.65c5.47-1.3 10.47-6.07 12.72-12.88Z" class="cls-4"/>
  <path d="M111.64 160.11a19.74 19.74 0 0 0 9.85-15.54c-4.89-3-11.55-3-17.45.44a19.72 19.72 0 0 0-9.85 15.53c4.88 2.96 11.55 3.02 17.45-.43ZM81.88 157.46a18.81 18.81 0 0 0-12.94-12.62 17.24 17.24 0 0 0-17.06 4 18.77 18.77 0 0 0 12.94 12.62 17.19 17.19 0 0 0 17.06-4ZM62.22 192.14A18.35 18.35 0 0 0 48 203a17.48 17.48 0 0 0 16.49 6.15 18.35 18.35 0 0 0 14.26-10.88 17.5 17.5 0 0 0-16.53-6.13ZM56.73 189.54a18 18 0 0 0-15.23-9.2 17.79 17.79 0 0 0-15.82 8 18 18 0 0 0 15.23 9.19 17.75 17.75 0 0 0 15.82-7.99Z" class="cls-1"/>
  <path d="M36.57 175a19.24 19.24 0 0 0-11.65-14c-6.27-2.59-12.88-1.6-17.36 2a19.2 19.2 0 0 0 11.65 14c6.27 2.64 12.88 1.65 17.36-2Z" class="cls-2"/>
  <path d="M22.9 156.94a20.56 20.56 0 0 0-5.85-17.73c-4.89-5-11.34-6.74-16.77-5.22a20.56 20.56 0 0 0 5.85 17.73c4.87 4.96 11.34 6.75 16.77 5.22Z" class="cls-4"/>
  <path d="M19.65 132.61c2.17-5.56 1.46-12.71-2.39-18.64s-9.84-9.09-15.43-8.79c-2.18 5.57-1.47 12.72 2.38 18.64s9.84 9.1 15.44 8.79Z" class="cls-3"/>
  <path d="M24.55 108.74c2.8-5.22 2.93-12.41-.2-18.81s-8.71-10.35-14.29-10.81c-2.81 5.23-2.94 12.42.19 18.82s8.75 10.35 14.3 10.8Z" class="cls-2"/>
  <path d="M30.92 83c3.51-4.51 4.89-11.52 3.11-18.47s-6.22-12-11.31-13.68c-3.5 4.52-4.89 11.53-3.12 18.48s6.23 12 11.32 13.67Z" class="cls-1"/>
  <path d="M50.52 179.66a17.25 17.25 0 0 0 17-4.27A18.73 18.73 0 0 0 54.39 163a17.26 17.26 0 0 0-17 4.26 18.73 18.73 0 0 0 13.13 12.4Z" class="cls-4"/>
  <path d="M47 120.78a19.73 19.73 0 0 0 9.78 15.59c5.88 3.48 12.55 3.46 17.45.52a19.74 19.74 0 0 0-9.78-15.58c-5.88-3.48-12.54-3.46-17.45-.53Z" class="cls-1"/>
  <path d="M74.66 102.07C71.49 95.7 65.89 91.8 60.3 91.39c-2.77 5.25-2.85 12.44.33 18.81s8.78 10.28 14.37 10.69c2.77-5.26 2.85-12.44-.34-18.82Z" class="cls-3"/>
  <path d="M112.9 183.45a17.71 17.71 0 0 0 16-7.53 18.05 18.05 0 0 0-15-9.61 17.66 17.66 0 0 0-16 7.52 18.05 18.05 0 0 0 15 9.62Z" class="cls-1"/>
  <path d="M119.13 204.78a17.49 17.49 0 0 0 16.46-6.31 18.32 18.32 0 0 0-14.34-10.72A17.5 17.5 0 0 0 104.8 194a18.33 18.33 0 0 0 14.33 10.78Z" class="cls-2"/>
  <path fill="#725243" d="M150 242c13.32-41.47 38.47-77.63 38.47-77.63l-3.47-2.13s-19.23 35.1-28.11 30.31 18.25-84 18.25-84l-3.45-2.13s-24.17 78.17-38.47 113.26c-7.26 17.83-20.71 22.87-31.07-18.61-4.79-19.07-19.26-65.94-19.26-65.94l-3.4 1.59s11.83 36.21 13.75 61.15c.5 6.38-4.8 1.06-9.73-8-6.92-12.65-13.91-23.37-13.91-23.37l-2 3.19s32.06 53.7 35 97.31c2.73 40.27-11.84 62.74-11.84 62.74h62.14S136.64 283.48 150 242Z"/>
</svg>
